<?xml version="1.0" standalone="no"?>
<!DOCTYPE svg PUBLIC "-//W3C//DTD SVG 20010904//EN"
 "http://www.w3.org/TR/2001/REC-SVG-20010904/DTD/svg10.dtd">
<svg version="1.0" xmlns="http://www.w3.org/2000/svg"
 width="70.000000pt" height="70.000000pt" viewBox="0 0 70.000000 70.000000"
 preserveAspectRatio="xMidYMid meet">
<metadata>
Created by potrace 1.14, written by Peter Selinger 2001-2017
</metadata>
<g transform="translate(0.000000,70.000000) scale(0.100000,-0.100000)"
fill="#000000" stroke="none">
<path d="M354 661 c-17 -10 -45 -42 -62 -70 -25 -40 -37 -51 -58 -51 -16 0
-39 -13 -61 -35 -37 -37 -39 -57 -18 -130 4 -15 -2 -23 -27 -35 -49 -22 -75
-89 -104 -260 -9 -51 9 -62 93 -58 60 3 68 5 71 24 2 11 -3 26 -11 32 -8 7
-12 23 -9 37 4 21 10 25 42 25 42 0 64 -27 35 -42 -18 -11 -20 -49 -3 -66 7
-7 40 -12 79 -12 96 0 112 20 84 106 -5 18 1 26 40 49 60 34 68 26 69 -64 1
-39 6 -75 12 -81 17 -17 115 -8 128 12 12 20 -7 130 -30 165 -8 12 -14 36 -14
54 0 17 -6 45 -14 62 -8 18 -20 51 -26 75 -6 23 -20 48 -30 55 -17 10 -20 23
-20 79 0 64 -2 70 -36 108 -42 46 -79 52 -130 21z m115 -36 c17 -20 31 -40 31
-44 0 -11 -25 -21 -55 -21 -28 0 -39 -24 -23 -53 7 -12 13 -26 14 -32 0 -5 2
-15 2 -22 1 -6 11 -14 21 -18 24 -7 61 -81 61 -119 0 -39 -26 -84 -63 -106
-18 -11 -37 -20 -43 -20 -10 0 -28 60 -39 137 -8 51 -39 93 -68 93 -20 0 -19
-2 7 -29 18 -19 29 -43 33 -72 3 -24 11 -63 19 -87 8 -23 14 -59 14 -78 0 -19
5 -44 11 -55 5 -11 7 -29 4 -39 -5 -17 -16 -20 -71 -20 -51 0 -66 3 -71 17 -4
9 -2 18 3 20 31 11 35 19 21 51 -7 17 -25 40 -40 52 -16 13 -27 31 -27 46 0
14 -7 39 -16 56 -9 17 -14 44 -11 61 2 17 -2 42 -9 56 -8 14 -14 34 -14 44 0
29 54 77 87 77 23 0 33 9 58 52 31 53 75 88 111 88 13 0 35 -15 53 -35z m71
-206 c6 -10 10 -26 10 -36 1 -10 9 -36 20 -58 11 -22 19 -56 20 -75 0 -20 5
-41 10 -46 15 -15 43 -132 36 -149 -8 -21 -94 -21 -102 0 -4 8 -1 21 5 28 12
15 -6 127 -21 127 -4 0 2 21 13 46 23 52 21 88 -11 147 -11 20 -20 39 -20 42
0 11 31 -9 40 -26z m-361 -184 c1 -11 7 -32 15 -47 14 -27 14 -27 -14 -22 -25
6 -28 3 -32 -27 -3 -19 -8 -41 -12 -50 -5 -12 -1 -18 13 -22 12 -3 21 -10 21
-17 0 -7 -21 -10 -62 -8 -60 3 -63 4 -61 28 5 54 20 126 31 147 7 12 12 31 12
43 0 11 12 33 27 48 l26 26 18 -39 c10 -22 18 -49 18 -60z"/>
</g>
</svg>
